# xmcd
#
# Track frame offsets: 
#        225
#        12922
#        27658
#        38388
#        54010
#        66513
#        80440
#        91681
#        105079
#        119745
#        135036
#        150327
#        160159
#        173185
#
# Disc length: 2482 seconds
#
# Revision: 0
# Processed by: cddbd v1.5.2PL0 Copyright (c) Steve Scherf et al.
# Submitted via: ExactAudioCopyFreeDBPlugin 1.0
#
DISCID=9809af0e
DTITLE=Don Williams - Just a Country Boy
DYEAR=2012
DGENRE=Country
TTITLE0=Your're My Best Friend
TTITLE1=When I'm With You
TTITLE2=(Turn Out The Light) Love Me Tonight
TTITLE3=Til The River's All Run Dry
TTITLE4=Some Broken Heart's Never Mend
TTITLE5=I'm Just A Country Boy
TTITLE6=It Must Be Love
TTITLE7=Where Are You
TTITLE8=My Womans Love
TTITLE9=All I'm Missing You
TTITLE10=Don't You Think It's Time
TTITLE11=Endless Sleep
TTITLE12=I'M Getting Good At Missing You
TTITLE13=Goodbye Isn't Really Good At All
EXTD=
EXTT0=
EXTT1=
EXTT2=
EXTT3=
EXTT4=
EXTT5=
EXTT6=
EXTT7=
EXTT8=
EXTT9=
EXTT10=
EXTT11=
EXTT12=
EXTT13=
PLAYORDER=
